<svg xmlns="http://www.w3.org/2000/svg" width="120.4" height="40.246" viewBox="0 0 120.4 40.246">
  <g id="Group_1591" data-name="Group 1591" transform="translate(0.001)">
    <g id="Group_1588" data-name="Group 1588" transform="translate(-0.001)">
      <g id="Group_1583" data-name="Group 1583">
        <g id="Group_1582" data-name="Group 1582">
          <path id="Path_21031" data-name="Path 21031" d="M110.812,0H9.594c-.369,0-.733,0-1.1,0-.308,0-.614.008-.925.013A13.236,13.236,0,0,0,5.551.192,6.761,6.761,0,0,0,3.638.823,6.484,6.484,0,0,0,2.01,2.009,6.323,6.323,0,0,0,.824,3.64,6.666,6.666,0,0,0,.2,5.555a13.159,13.159,0,0,0-.18,2.014C.006,7.878.005,8.188,0,8.5V31.753c.005.312.006.615.015.927A13.136,13.136,0,0,0,.2,34.694a6.648,6.648,0,0,0,.629,1.917A6.271,6.271,0,0,0,2.01,38.235a6.338,6.338,0,0,0,1.628,1.186,6.736,6.736,0,0,0,1.913.634,13.367,13.367,0,0,0,2.016.178c.311.007.617.011.925.011.368,0,.732,0,1.1,0H110.812c.361,0,.728,0,1.091,0,.306,0,.621,0,.928-.011a13.2,13.2,0,0,0,2.012-.178,6.823,6.823,0,0,0,1.92-.634,6.351,6.351,0,0,0,1.627-1.186,6.45,6.45,0,0,0,1.189-1.624,6.666,6.666,0,0,0,.623-1.917,13.536,13.536,0,0,0,.186-2.014c0-.312,0-.615,0-.927.008-.366.008-.729.008-1.1V9.595c0-.368,0-.733-.008-1.1,0-.308,0-.618,0-.927a13.56,13.56,0,0,0-.186-2.014,6.684,6.684,0,0,0-.623-1.915A6.514,6.514,0,0,0,116.763.823a6.848,6.848,0,0,0-1.92-.631,13.073,13.073,0,0,0-2.012-.177C112.524.01,112.209,0,111.9,0c-.362,0-.729,0-1.091,0Z" fill="#a2a2a2"/>
          <path id="Path_21032" data-name="Path 21032" d="M8.492,39.36c-.307,0-.606,0-.91-.011A12.7,12.7,0,0,1,5.7,39.185a5.9,5.9,0,0,1-1.666-.551,5.407,5.407,0,0,1-1.406-1.022A5.362,5.362,0,0,1,1.6,36.206a5.787,5.787,0,0,1-.546-1.667,12.464,12.464,0,0,1-.167-1.887c-.007-.212-.015-.919-.015-.919V8.491s.009-.7.015-.9a12.426,12.426,0,0,1,.166-1.884A5.76,5.76,0,0,1,1.6,4.035,5.371,5.371,0,0,1,2.623,2.629,5.6,5.6,0,0,1,4.033,1.6,5.854,5.854,0,0,1,5.7,1.052,12.728,12.728,0,0,1,7.584.887L8.492.875h103.4l.919.013a12.435,12.435,0,0,1,1.869.163,5.989,5.989,0,0,1,1.681.551,5.627,5.627,0,0,1,2.43,2.435A5.773,5.773,0,0,1,119.33,5.7a12.9,12.9,0,0,1,.175,1.9c0,.285,0,.592,0,.9.008.377.008.737.008,1.1V30.647c0,.365,0,.722-.008,1.082,0,.327,0,.627,0,.936a12.63,12.63,0,0,1-.172,1.864,5.757,5.757,0,0,1-.543,1.68,5.509,5.509,0,0,1-1.021,1.395,5.421,5.421,0,0,1-1.409,1.028,5.868,5.868,0,0,1-1.678.553,12.537,12.537,0,0,1-1.88.164c-.295.007-.6.011-.9.011l-1.091,0Z" transform="translate(0.005 0.005)"/>
        </g>
      </g>
      <g id="Group_1587" data-name="Group 1587" transform="translate(10.033 8.774)">
        <g id="Group_1585" data-name="Group 1585">
          <g id="Group_1584" data-name="Group 1584">
            <path id="Path_21033" data-name="Path 21033" d="M24.86,20.34a4.978,4.978,0,0,1,2.37-4.178,5.094,5.094,0,0,0-4.016-2.171C21.526,13.814,19.888,15,19.026,15c-.877,0-2.2-.994-3.63-.964a5.347,5.347,0,0,0-4.5,2.744C8.95,20.152,10.4,25.1,12.265,27.827c.933,1.333,2.022,2.822,3.449,2.77,1.4-.058,1.917-.89,3.6-.89,1.669,0,2.158.89,3.613.857,1.5-.025,2.441-1.34,3.341-2.686A11.023,11.023,0,0,0,27.8,24.766,4.811,4.811,0,0,1,24.86,20.34Z" transform="translate(-9.972 -8.688)" fill="#fff"/>
            <path id="Path_21034" data-name="Path 21034" d="M22.057,12.232A4.9,4.9,0,0,0,23.179,8.72a4.99,4.99,0,0,0-3.228,1.67A4.666,4.666,0,0,0,18.8,13.772,4.125,4.125,0,0,0,22.057,12.232Z" transform="translate(-9.918 -8.72)" fill="#fff"/>
          </g>
        </g>
        <g id="Group_1586" data-name="Group 1586" transform="translate(24.606 9.207)">
          <path id="Path_21035" data-name="Path 21035" d="M42.35,27.2H37.588l-1.144,3.377H34.427l4.512-12.494h2.1l4.511,12.494H43.493Zm-4.269-1.559h3.775L40,20.157h-.051Z" transform="translate(-34.427 -17.87)" fill="#fff"/>
          <path id="Path_21036" data-name="Path 21036" d="M55.212,26c0,2.83-1.515,4.649-3.8,4.649a3.087,3.087,0,0,1-2.866-1.594H48.5v4.512h-1.87V21.443h1.81v1.515h.034a3.234,3.234,0,0,1,2.9-1.61C53.688,21.348,55.212,23.175,55.212,26Zm-1.922,0c0-1.844-.954-3.057-2.408-3.057-1.429,0-2.39,1.238-2.39,3.057,0,1.835.961,3.065,2.39,3.065C52.337,29.063,53.291,27.859,53.291,26Z" transform="translate(-34.352 -17.85)" fill="#fff"/>
          <path id="Path_21037" data-name="Path 21037" d="M65.177,26c0,2.83-1.515,4.649-3.8,4.649a3.087,3.087,0,0,1-2.866-1.594h-.043v4.512H56.6V21.443h1.81v1.515h.034a3.233,3.233,0,0,1,2.9-1.61C63.653,21.348,65.177,23.175,65.177,26Zm-1.923,0c0-1.844-.953-3.057-2.407-3.057-1.429,0-2.39,1.238-2.39,3.057,0,1.835.961,3.065,2.39,3.065C62.3,29.063,63.255,27.859,63.255,26Z" transform="translate(-34.291 -17.85)" fill="#fff"/>
          <path id="Path_21038" data-name="Path 21038" d="M71.722,27.092c.139,1.24,1.342,2.053,2.987,2.053,1.577,0,2.711-.813,2.711-1.931,0-.97-.684-1.55-2.3-1.948l-1.62-.39c-2.294-.554-3.36-1.627-3.36-3.369,0-2.155,1.878-3.636,4.547-3.636,2.64,0,4.45,1.481,4.511,3.636H77.307c-.113-1.247-1.143-2-2.65-2s-2.536.762-2.536,1.869c0,.883.658,1.4,2.269,1.8l1.376.338c2.564.607,3.628,1.636,3.628,3.464,0,2.337-1.861,3.8-4.822,3.8-2.771,0-4.642-1.43-4.763-3.69Z" transform="translate(-34.209 -17.871)" fill="#fff"/>
          <path id="Path_21039" data-name="Path 21039" d="M83.366,19.3v2.155H85.1v1.481H83.366v5.022c0,.781.347,1.144,1.109,1.144a5.738,5.738,0,0,0,.615-.043v1.472a5.114,5.114,0,0,1-1.038.087c-1.844,0-2.564-.693-2.564-2.459V22.936H80.163V21.455h1.324V19.3Z" transform="translate(-34.146 -17.862)" fill="#fff"/>
          <path id="Path_21040" data-name="Path 21040" d="M86.065,26c0-2.867,1.688-4.668,4.32-4.668s4.321,1.8,4.321,4.668-1.671,4.667-4.321,4.667S86.065,28.872,86.065,26ZM92.8,26c0-1.966-.9-3.127-2.416-3.127S87.971,24.041,87.971,26c0,1.974.9,3.125,2.415,3.125S92.8,27.973,92.8,26Z" transform="translate(-34.109 -17.85)" fill="#fff"/>
          <path id="Path_21041" data-name="Path 21041" d="M96.186,21.443H97.97v1.55h.042a2.174,2.174,0,0,1,2.191-1.645,2.9,2.9,0,0,1,.641.069v1.749a2.636,2.636,0,0,0-.84-.113,1.885,1.885,0,0,0-1.949,2.1v5.4H96.186Z" transform="translate(-34.047 -17.85)" fill="#fff"/>
          <path id="Path_21042" data-name="Path 21042" d="M109.434,27.877c-.252,1.653-1.861,2.788-3.922,2.788-2.65,0-4.3-1.775-4.3-4.623s1.654-4.711,4.217-4.711c2.52,0,4.105,1.732,4.105,4.493v.641H103.1v.113a2.372,2.372,0,0,0,2.451,2.58,2.061,2.061,0,0,0,2.1-1.281Zm-6.321-2.719h4.554a2.19,2.19,0,0,0-2.234-2.312A2.307,2.307,0,0,0,103.114,25.158Z" transform="translate(-34.016 -17.85)" fill="#fff"/>
        </g>
      </g>
    </g>
    <g id="Group_1590" data-name="Group 1590" transform="translate(35.89 8.489)">
      <g id="Group_1589" data-name="Group 1589">
        <path id="Path_21043" data-name="Path 21043" d="M37.839,8.731a2.656,2.656,0,0,1,2.825,2.983c0,1.918-1.036,3.02-2.825,3.02H35.671v-6ZM36.6,13.886h1.132a1.887,1.887,0,0,0,1.979-2.159,1.892,1.892,0,0,0-1.979-2.147H36.6Z" transform="translate(-35.671 -8.435)" fill="#fff"/>
        <path id="Path_21044" data-name="Path 21044" d="M41.681,12.458a2.146,2.146,0,1,1,4.273,0,2.147,2.147,0,1,1-4.273,0Zm3.353,0c0-.982-.442-1.557-1.215-1.557s-1.214.575-1.214,1.557.437,1.561,1.214,1.561S45.034,13.444,45.034,12.458Z" transform="translate(-35.634 -8.427)" fill="#fff"/>
        <path id="Path_21045" data-name="Path 21045" d="M51.6,14.726h-.928l-.936-3.337h-.071l-.932,3.337h-.919l-1.25-4.531h.908l.811,3.457h.067l.932-3.457h.857l.932,3.457h.07l.808-3.457h.894Z" transform="translate(-35.604 -8.426)" fill="#fff"/>
        <path id="Path_21046" data-name="Path 21046" d="M53.854,10.2h.86v.719h.066a1.357,1.357,0,0,1,1.352-.807A1.474,1.474,0,0,1,57.7,11.793v2.933h-.894V12.018c0-.728-.316-1.091-.978-1.091a1.039,1.039,0,0,0-1.082,1.148v2.651h-.893Z" transform="translate(-35.559 -8.427)" fill="#fff"/>
        <path id="Path_21047" data-name="Path 21047" d="M59.094,8.437h.893v6.3h-.893Z" transform="translate(-35.527 -8.437)" fill="#fff"/>
        <path id="Path_21048" data-name="Path 21048" d="M61.218,12.458a2.146,2.146,0,1,1,4.273,0,2.147,2.147,0,1,1-4.273,0Zm3.353,0c0-.982-.442-1.557-1.215-1.557s-1.214.575-1.214,1.557.437,1.561,1.214,1.561S64.572,13.444,64.572,12.458Z" transform="translate(-35.514 -8.427)" fill="#fff"/>
        <path id="Path_21049" data-name="Path 21049" d="M66.4,13.444c0-.815.607-1.286,1.685-1.352l1.226-.07V11.63c0-.478-.316-.749-.927-.749-.5,0-.845.183-.945.5h-.865c.092-.778.823-1.277,1.851-1.277,1.135,0,1.776.565,1.776,1.522v3.1h-.86v-.637h-.071a1.522,1.522,0,0,1-1.36.711A1.369,1.369,0,0,1,66.4,13.444Zm2.912-.386v-.379l-1.106.07c-.624.042-.908.255-.908.654s.354.645.84.645A1.068,1.068,0,0,0,69.313,13.058Z" transform="translate(-35.482 -8.427)" fill="#fff"/>
        <path id="Path_21050" data-name="Path 21050" d="M71.348,12.469c0-1.432.737-2.338,1.88-2.338a1.493,1.493,0,0,1,1.389.795h.067V8.437h.893v6.3h-.856V14.02h-.071a1.571,1.571,0,0,1-1.423.791C72.076,14.811,71.348,13.9,71.348,12.469Zm.924,0c0,.961.453,1.539,1.21,1.539s1.219-.587,1.219-1.535-.471-1.539-1.219-1.539S72.272,11.516,72.272,12.469Z" transform="translate(-35.452 -8.437)" fill="#fff"/>
        <path id="Path_21051" data-name="Path 21051" d="M79.23,12.458a2.146,2.146,0,1,1,4.273,0,2.147,2.147,0,1,1-4.273,0Zm3.354,0c0-.982-.441-1.557-1.215-1.557s-1.214.575-1.214,1.557.438,1.561,1.214,1.561S82.583,13.444,82.583,12.458Z" transform="translate(-35.403 -8.427)" fill="#fff"/>
        <path id="Path_21052" data-name="Path 21052" d="M84.669,10.2h.861v.719H85.6a1.357,1.357,0,0,1,1.352-.807,1.474,1.474,0,0,1,1.569,1.685v2.933h-.894V12.018c0-.728-.316-1.091-.978-1.091a1.039,1.039,0,0,0-1.082,1.148v2.651h-.894Z" transform="translate(-35.37 -8.427)" fill="#fff"/>
        <path id="Path_21053" data-name="Path 21053" d="M93.525,9.074v1.148h.982v.754h-.982V13.3c0,.475.2.683.641.683a3.028,3.028,0,0,0,.341-.021v.745a2.88,2.88,0,0,1-.487.046c-.994,0-1.389-.35-1.389-1.223V10.976h-.719v-.754h.719V9.074Z" transform="translate(-35.325 -8.433)" fill="#fff"/>
        <path id="Path_21054" data-name="Path 21054" d="M95.705,8.437h.885v2.5h.071a1.4,1.4,0,0,1,1.381-.811A1.493,1.493,0,0,1,99.6,11.812v2.925h-.9v-2.7c0-.723-.337-1.091-.969-1.091A1.059,1.059,0,0,0,96.6,12.09v2.646h-.893Z" transform="translate(-35.302 -8.437)" fill="#fff"/>
        <path id="Path_21055" data-name="Path 21055" d="M104.786,13.5a1.839,1.839,0,0,1-1.963,1.311,2.058,2.058,0,0,1-2.093-2.339,2.089,2.089,0,0,1,2.089-2.366c1.261,0,2.021.861,2.021,2.284V12.7h-3.2v.05a1.2,1.2,0,0,0,1.206,1.3,1.087,1.087,0,0,0,1.079-.549Zm-3.145-1.46h2.289a1.094,1.094,0,0,0-1.116-1.174A1.159,1.159,0,0,0,101.641,12.043Z" transform="translate(-35.271 -8.427)" fill="#fff"/>
      </g>
    </g>
  </g>
</svg>
