<svg xmlns="http://www.w3.org/2000/svg" xmlns:xlink="http://www.w3.org/1999/xlink" width="302" height="105" viewBox="0 0 302 105">
  <defs>
    <clipPath id="clip-Aster_Sanad_Saudi">
      <rect width="302" height="105"/>
    </clipPath>
  </defs>
  <g id="Aster_Sanad_Saudi" data-name="Aster Sanad Saudi" clip-path="url(#clip-Aster_Sanad_Saudi)">
    <g id="Group_3559" data-name="Group 3559">
      <g id="Group_3558" data-name="Group 3558" transform="translate(-3 -3)">
        <g id="Group_3553" data-name="Group 3553" transform="translate(14 8)">
          <g id="Group_3550" data-name="Group 3550" transform="translate(0.989)">
            <path id="Path_23835" data-name="Path 23835" d="M841.4,696.041l14.278-40.565h9.911l14.344,40.565v2.524h-9.3l-3.57-10.958H852.541l-3.446,10.958H841.4Zm13.171-15.02h10.342l-5.171-15.879h-.123Z" transform="translate(-841.401 -655.476)" fill="#1c4288"/>
            <path id="Path_23836" data-name="Path 23836" d="M906.059,702.622v-6.647h2.832a11.752,11.752,0,0,0,7.94,2.707c3.633,0,5.539-.984,5.539-3.016,0-1.968-1.168-2.892-5.724-3.446-7.08-.862-10.834-3.51-10.834-9.85,0-6.525,4.863-10.154,12.8-10.154a21.088,21.088,0,0,1,10.157,2.214v6.525h-2.709a12.539,12.539,0,0,0-7.386-2.154c-3.509,0-4.864,1.047-4.864,2.894,0,1.66,1.6,2.522,6.033,3.076,7.7.984,10.9,3.508,10.9,10.033,0,6.34-4.126,10.464-13.48,10.464A21.81,21.81,0,0,1,906.059,702.622Z" transform="translate(-865.779 -661.812)" fill="#1c4288"/>
            <path id="Path_23837" data-name="Path 23837" d="M946.586,667.561H950.4v-8.619h8.987v8.619h6.524v6.031h-6.524v16.559c0,3.078,1.229,3.94,4.184,3.94h2.461v5.416a17.9,17.9,0,0,1-5.663.86c-6.215,0-9.97-2.461-9.97-9.169V673.592h-3.818Z" transform="translate(-881.211 -656.788)" fill="#1c4288"/>
            <path id="Path_23838" data-name="Path 23838" d="M987.63,690.665c.429,6.463,3.509,8.25,8.493,8.25a14.159,14.159,0,0,0,8.557-2.709h2.77v5.909c-2.587,1.477-6.216,3.14-12.679,3.14-10.588,0-16.375-6.281-16.375-16.436,0-10.4,6.772-16.8,15.759-16.8,9.478,0,14.525,5.231,14.525,15.878,0,1.109-.122,2.465-.122,2.77Zm.124-5.416h12.064c-.186-5.723-2.155-7.57-5.663-7.57C991.016,677.679,988.43,679.217,987.754,685.249Z" transform="translate(-893.25 -661.736)" fill="#1c4288"/>
            <path id="Path_23839" data-name="Path 23839" d="M1042.122,681.606v23.33h-8.986V672.62h6.093c1.538,0,2.463.677,2.771,3.879a12.236,12.236,0,0,1,8.987-4.19,6.882,6.882,0,0,1,1.971.311V679.7h-1.54A20.238,20.238,0,0,0,1042.122,681.606Z" transform="translate(-913.967 -661.847)" fill="#1c4288"/>
          </g>
          <g id="Group_3552" data-name="Group 3552" transform="translate(0 52.634)">
            <g id="Group_3551" data-name="Group 3551" transform="translate(0 0.206)">
              <path id="Path_23840" data-name="Path 23840" d="M848.71,761.609h-8.181c0-4.21.24-4.895,3.97-4.895h4.108c3.935,0,3.935-.1,3.935-1.711,0-1.438-2.259-1.711-3.422-1.917-3.9-.787-9.31-1.334-9.31-5.887,0-4.244,3.252-6.708,9.55-6.708h8.248c0,4.244-.377,4.86-3.937,4.86h-4.449c-3.56,0-3.56,0-3.56,1.848,0,.446.447.959,1.336,1.2,4.279,1.061,11.363,1.233,11.363,6.606C858.361,758.357,855.828,761.609,848.71,761.609Z" transform="translate(-839.81 -740.492)" fill="#1c4288"/>
              <path id="Path_23841" data-name="Path 23841" d="M891.018,761.541c-2.807-.137-3.013-1.643-3.834-3.662h-8.727c-1.676,4.347-2.157,3.7-7.7,3.7l7.6-18.242c1.027-2.533,1.506-2.84,4.449-2.84h3.149l8.966,21.083C892.284,761.575,891.565,761.575,891.018,761.541ZM882.8,746.584l-2.635,6.811h5.3Z" transform="translate(-851.522 -740.492)" fill="#1c4288"/>
              <path id="Path_23842" data-name="Path 23842" d="M931.561,761.575c-3.116,0-3.458-.377-4.964-2.6L919.205,748.5v13.075c-5.032,0-5.886-.205-5.886-3.662V740.492h3.011c2.737,0,3.388-.069,5.134,2.4l7.324,10.507v-9.548c0-3.252,1.027-3.354,5.886-3.354v21.083Z" transform="translate(-867.631 -740.492)" fill="#1c4288"/>
              <path id="Path_23843" data-name="Path 23843" d="M971.792,761.541c-2.807-.137-3.014-1.643-3.834-3.662H959.23c-1.676,4.347-2.156,3.7-7.7,3.7l7.6-18.242c1.027-2.533,1.505-2.84,4.449-2.84h3.149l8.966,21.083C973.057,761.575,972.338,761.575,971.792,761.541Zm-8.215-14.957-2.635,6.811h5.3Z" transform="translate(-882.092 -740.492)" fill="#1c4288"/>
              <path id="Path_23844" data-name="Path 23844" d="M1002.921,761.65h-4.142c-2.191,0-3.25-.172-3.832-.582-.993-.685-.855-2.053-.855-3.081V744.3c0-3.491.787-3.7,4.723-3.7h4.381c7.05,0,10.78,3.8,10.78,10.371C1013.976,757.508,1009.937,761.65,1002.921,761.65Zm-.444-16.292H999.91v11.568h2.326c5.955,0,5.955,0,5.955-5.99C1008.191,746.42,1006.445,745.359,1002.477,745.359Z" transform="translate(-898.198 -740.533)" fill="#1c4288"/>
            </g>
            <path id="Path_23845" data-name="Path 23845" d="M1059.937,761.541c-2.6-.205-2.567-1.848-2.567-3.7v-4.655h-8.043v8.386c-5.066,0-5.886-.205-5.886-3.73V740.492c5,0,5.886.205,5.886,3.662V748.5h8.043v-8.008c5.031,0,5.921.17,5.921,3.662v17.421C1061.168,761.575,1060.483,761.575,1059.937,761.541Z" transform="translate(-916.878 -740.286)" fill="#00a984"/>
            <path id="Path_23846" data-name="Path 23846" d="M1092.918,761.688c-8.968,0-11.158-5.236-11.158-10.747s2.224-10.781,11.124-10.781c9.036,0,11.191,5.271,11.191,10.816C1104.075,756.452,1101.92,761.688,1092.918,761.688Zm0-16.7c-5.2,0-5.2.068-5.2,5.954,0,3.7.957,5.956,5.167,5.956,5.27,0,5.27-.034,5.27-5.921C1098.154,747.245,1097.231,744.987,1092.918,744.987Z" transform="translate(-931.381 -740.16)" fill="#00a984"/>
            <path id="Path_23847" data-name="Path 23847" d="M1131.077,761.609H1122.9c0-4.21.24-4.895,3.97-4.895h4.109c3.934,0,3.934-.1,3.934-1.711,0-1.438-2.259-1.711-3.422-1.917-3.9-.787-9.31-1.334-9.31-5.887,0-4.244,3.251-6.708,9.55-6.708h8.248c0,4.244-.377,4.86-3.937,4.86h-4.449c-3.56,0-3.56,0-3.56,1.848,0,.446.446.959,1.336,1.2,4.279,1.061,11.363,1.233,11.363,6.606C1140.728,758.357,1138.2,761.609,1131.077,761.609Z" transform="translate(-946.678 -740.286)" fill="#00a984"/>
            <path id="Path_23848" data-name="Path 23848" d="M1166.858,755.045h-3.114v6.571c-4.861,0-5.886,0-5.886-3.73V744.3c0-3.7.855-3.7,4.724-3.7h3.969c8.8,0,9.927,4.039,9.927,7.187C1176.477,750.767,1175.724,755.045,1166.858,755.045Zm-.136-9.686h-2.978v5h3.012c3.764,0,3.764,0,3.764-2.567C1170.52,746.693,1170.453,745.359,1166.722,745.359Z" transform="translate(-960.182 -740.327)" fill="#00a984"/>
            <path id="Path_23849" data-name="Path 23849" d="M1194.2,757.954V740.6c4.962,0,5.886.137,5.886,3.525v17.49C1195.052,761.616,1194.2,761.411,1194.2,757.954Z" transform="translate(-973.935 -740.327)" fill="#00a984"/>
            <path id="Path_23850" data-name="Path 23850" d="M1222.354,745.393h-2.02v16.223c-5,0-5.785-.205-5.785-3.7V745.393h-6.091c0-4.483.343-4.792,3.8-4.792h14.1C1226.359,744.982,1225.948,745.393,1222.354,745.393Z" transform="translate(-979.333 -740.327)" fill="#00a984"/>
            <path id="Path_23851" data-name="Path 23851" d="M1254.323,761.541c-2.807-.137-3.014-1.643-3.834-3.662h-8.728c-1.676,4.347-2.156,3.7-7.7,3.7l7.6-18.242c1.027-2.533,1.505-2.84,4.449-2.84h3.149l8.966,21.083C1255.589,761.575,1254.869,761.575,1254.323,761.541Zm-8.215-14.957-2.635,6.811h5.3Z" transform="translate(-989.022 -740.286)" fill="#00a984"/>
            <path id="Path_23852" data-name="Path 23852" d="M1281.106,761.6c-3.184,0-4.483.068-4.483-3.662V740.585c1.266,0,3.934-.205,4.962.548.617.479.857,1.334.857,3.148v12.6h4.072c4.449,0,4,1.37,4,4.724Z" transform="translate(-1005.131 -740.311)" fill="#00a984"/>
          </g>
        </g>
      </g>
      <g id="Group_3557" data-name="Group 3557" transform="translate(-31.52 1.096)">
        <path id="Path_23822" data-name="Path 23822" d="M229.258,266.063l1.9,9.672h.5l2.206-9.551h1.1l2.192,9.551h.5l1.9-9.672h.953l-2.162,10.5h-1.873l-2.072-9.218-2.069,9.218h-1.875l-2.16-10.5Z" transform="translate(-185.787 -178.39)" fill="#58595b"/>
        <path id="Path_23823" data-name="Path 23823" d="M261.219,275.492c0-2.04-.649-2.767-2.069-2.767-1.376,0-2.192.757-2.192,2.767Zm.6,3.355.03.741s-1.708.212-2.887.212c-2.251-.014-2.932-1.376-2.932-3.9,0-2.917,1.27-3.959,3.114-3.959,1.949,0,2.976,1.043,2.976,3.581l-.03.726h-5.137c0,1.785.513,2.736,2.1,2.736,1.1,0,2.766-.136,2.766-.136" transform="translate(-200.327 -181.471)" fill="#58595b"/>
        <path id="Path_23824" data-name="Path 23824" d="M272.423,265.458h.967l-.876,3.19h-.726Z" transform="translate(-208.588 -178.072)" fill="#58595b"/>
        <rect id="Rectangle_3011" data-name="Rectangle 3011" width="0.892" height="10.911" transform="translate(66.689 87.266)" fill="#58595b"/>
        <rect id="Rectangle_3012" data-name="Rectangle 3012" width="0.891" height="10.911" transform="translate(70.028 87.266)" fill="#58595b"/>
        <path id="Path_23825" data-name="Path 23825" d="M297.99,266.063h7.556v.846h-3.293v9.657h-.938v-9.657H297.99Z" transform="translate(-222.328 -178.39)" fill="#58595b"/>
        <path id="Path_23826" data-name="Path 23826" d="M313.681,272.091h.892v1.088a8.079,8.079,0,0,1,2.856-1.239v.907a10.835,10.835,0,0,0-2.856,1.134v5.666h-.892Z" transform="translate(-230.556 -181.471)" fill="#58595b"/>
        <path id="Path_23827" data-name="Path 23827" d="M328.521,275.492c0-2.04-.65-2.767-2.069-2.767-1.376,0-2.192.757-2.192,2.767Zm.6,3.355.029.741s-1.707.212-2.886.212c-2.251-.014-2.932-1.376-2.932-3.9,0-2.917,1.271-3.959,3.115-3.959,1.949,0,2.975,1.043,2.975,3.581l-.03.726H324.26c0,1.785.513,2.736,2.1,2.736,1.1,0,2.767-.136,2.767-.136" transform="translate(-235.62 -181.471)" fill="#58595b"/>
        <path id="Path_23828" data-name="Path 23828" d="M341.354,276.021c-1.013.091-1.391.574-1.391,1.482,0,.967.424,1.526,1.254,1.526a8.555,8.555,0,0,0,2.6-.529v-2.735Zm3.355,2.373c.046.453.484.6.982.664l-.045.727a2.126,2.126,0,0,1-1.708-.6,8.2,8.2,0,0,1-2.841.619c-1.33,0-2.071-.771-2.071-2.282,0-1.391.7-2.056,2.223-2.206l2.569-.257v-.71c0-1.149-.514-1.587-1.482-1.587-1.087,0-2.855.226-2.855.226l-.047-.725a19.093,19.093,0,0,1,2.932-.317c1.648,0,2.343.8,2.343,2.4Z" transform="translate(-243.847 -181.472)" fill="#58595b"/>
        <path id="Path_23829" data-name="Path 23829" d="M356.393,270.444v3.734c0,1.888.12,2.372,1.208,2.372.424,0,1.391-.107,1.391-.107l.061.771a13.923,13.923,0,0,1-1.526.153c-1.5,0-2.041-.56-2.041-2.736v-4.187h-1.117v-.8h1.117v-2.372h.907v2.372h2.523v.8Z" transform="translate(-251.893 -179.023)" fill="#58595b"/>
        <path id="Path_23830" data-name="Path 23830" d="M376.238,276.566H375.3v-4.444l-3.37-6.059h1.043l2.8,5.092,2.78-5.092h1.059l-3.371,6.059Z" transform="translate(-261.102 -178.39)" fill="#58595b"/>
        <path id="Path_23831" data-name="Path 23831" d="M393.349,275.763c0-2.267-.515-3.023-2.238-3.023s-2.236.757-2.236,3.023c0,2.312.273,3.235,2.236,3.235s2.238-.923,2.238-3.235m.921,0c0,2.856-.635,4.036-3.158,4.036s-3.174-1.18-3.174-4.036c0-2.676.832-3.824,3.174-3.824s3.158,1.149,3.158,3.824" transform="translate(-269.495 -181.471)" fill="#58595b"/>
        <path id="Path_23832" data-name="Path 23832" d="M410.928,272.258v7.557h-.892v-.559a5.2,5.2,0,0,1-2.326.71c-2.1,0-2.525-.937-2.525-3.763v-3.945h.891v3.93c0,2.251.228,2.961,1.738,2.961a4.746,4.746,0,0,0,2.221-.635v-6.257Z" transform="translate(-278.54 -181.638)" fill="#58595b"/>
        <path id="Path_23833" data-name="Path 23833" d="M428.625,266.063l1.9,9.672h.5l2.206-9.551h1.1l2.192,9.551h.5l1.9-9.672h.953l-2.162,10.5H435.85l-2.072-9.218-2.069,9.218h-1.875l-2.16-10.5Z" transform="translate(-290.333 -178.39)" fill="#58595b"/>
        <path id="Path_23834" data-name="Path 23834" d="M460.586,275.492c0-2.04-.649-2.767-2.069-2.767-1.376,0-2.192.757-2.192,2.767Zm.6,3.355.029.741s-1.707.212-2.886.212c-2.251-.014-2.932-1.376-2.932-3.9,0-2.917,1.271-3.959,3.114-3.959,1.95,0,2.976,1.043,2.976,3.581l-.03.726h-5.137c0,1.785.513,2.736,2.1,2.736,1.1,0,2.767-.136,2.767-.136" transform="translate(-304.873 -181.471)" fill="#58595b"/>
        <rect id="Rectangle_3013" data-name="Rectangle 3013" width="0.891" height="10.911" transform="translate(158.566 87.266)" fill="#58595b"/>
        <rect id="Rectangle_3014" data-name="Rectangle 3014" width="0.891" height="10.911" transform="translate(161.905 87.266)" fill="#58595b"/>
      </g>
    </g>
  </g>
</svg>
